<?xml version="1.0" encoding="UTF-8"?>
<svg height="16px" viewBox="0 0 16 16" width="16px" xmlns="http://www.w3.org/2000/svg">
    <path d="m 9 2 h 5 c 0.550781 0 1 0.449219 1 1 v 11 c 0 0.550781 -0.449219 1 -1 1 h -5 c -0.550781 0 -1 -0.449219 -1 -1 v -11 c 0 -0.550781 0.449219 -1 1 -1 z m 0 0"/>
    <path d="m 2 3 c -0.554688 0 -1 0.445312 -1 1 v 9 c 0 0.554688 0.445312 1 1 1 h 6 c 0.554688 0 1 -0.445312 1 -1 v -9 c 0 -0.554688 -0.445312 -1 -1 -1 z m 0 1 h 1 v 1 h -1 z m 2 0 h 1 v 1 h -1 z m 2 0 h 1 v 1 h -1 z m -4 1.5 h 6 v 6 h -6 z m 0 6.5 h 1 v 1 h -1 z m 2 0 h 1 v 1 h -1 z m 2 0 h 1 v 1 h -1 z m 0 0"/>
    <path d="m 11 1 h 1 c 0.550781 0 1 0.449219 1 1 s -0.449219 1 -1 1 h -1 c -0.550781 0 -1 -0.449219 -1 -1 s 0.449219 -1 1 -1 z m 0 0"/>
    <path d="m 8 8 l -1 -1 l -2 3 l -2 -2 l -1 1 v 2.5 h 6 z"/>
</svg>
