<?xml version="1.0" encoding="UTF-8"?>
<svg height="16px" viewBox="0 0 16 16" width="16px" xmlns="http://www.w3.org/2000/svg">
    <path d="m 10 0.5 v 1 c 0 0.277344 -0.222656 0.5 -0.5 0.5 h -1 c -0.277344 0 -0.5 0.222656 -0.5 0.5 v 13 c 0 0.277344 0.222656 0.5 0.5 0.5 h 7 c 0.277344 0 0.5 -0.222656 0.5 -0.5 v -13 c 0 -0.277344 -0.222656 -0.5 -0.5 -0.5 h -1 c -0.277344 0 -0.5 -0.222656 -0.5 -0.5 v -1 c 0 -0.277344 -0.222656 -0.5 -0.5 -0.5 h -3 c -0.277344 0 -0.5 0.222656 -0.5 0.5 z m 0 0"/>
    <path d="m 0.5 4 c -0.277344 0 -0.5 0.222656 -0.5 0.5 v 5 c 0 0.277344 0.222656 0.5 0.5 0.5 h 2 c 0.277344 0 0.5 0.222656 0.5 0.5 v 3 c 0 0.277344 0.222656 0.5 0.5 0.5 h 3 c 0.277344 0 0.5 -0.222656 0.5 -0.5 v -9 c 0 -0.277344 -0.222656 -0.5 -0.5 -0.5 z m 0.5 1 h 2 v 2 h -2 z m 3 0 h 2 v 2 h -2 z m 0 6 h 2 v 2 h -2 z m 0 0"/>
</svg>
