<?xml version="1.0" encoding="UTF-8"?>
<svg height="128px" viewBox="0 0 128 128" width="128px" xmlns="http://www.w3.org/2000/svg" xmlns:xlink="http://www.w3.org/1999/xlink">
    <linearGradient id="a" gradientUnits="userSpaceOnUse" x1="8.000046" x2="70.000046" y1="64.000473" y2="64.000473">
        <stop offset="0" stop-color="#986a44"/>
        <stop offset="0.580645" stop-color="#986a44"/>
        <stop offset="0.777541" stop-color="#865e3c" stop-opacity="0.99434"/>
        <stop offset="1" stop-color="#865e3c" stop-opacity="0.984566"/>
    </linearGradient>
    <linearGradient id="b" gradientUnits="userSpaceOnUse" x1="72.000046" x2="104.000046" y1="12.000488" y2="12.000488">
        <stop offset="0" stop-color="#3d3846"/>
        <stop offset="0.0625" stop-color="#3d3846" stop-opacity="0.964706"/>
        <stop offset="0.1875" stop-color="#5e5c64"/>
        <stop offset="0.627068" stop-color="#3d3846"/>
        <stop offset="1" stop-color="#5e5c64"/>
    </linearGradient>
    <linearGradient id="c" gradientUnits="userSpaceOnUse" x1="56.000046" x2="120.000046" y1="66.000488" y2="66.000488">
        <stop offset="0" stop-color="#3d3846"/>
        <stop offset="0.0625" stop-color="#3d3846" stop-opacity="0.964706"/>
        <stop offset="0.1875" stop-color="#77767b"/>
        <stop offset="0.627068" stop-color="#3d3846"/>
        <stop offset="1" stop-color="#5e5c64"/>
    </linearGradient>
    <linearGradient id="d" gradientUnits="userSpaceOnUse" x1="56.000046" x2="120.000046" y1="65.000488" y2="65.000488">
        <stop offset="0" stop-color="#e5a50a"/>
        <stop offset="0.125" stop-color="#f5c211"/>
        <stop offset="0.375" stop-color="#e5a50a"/>
        <stop offset="0.6875" stop-color="#e5a50a"/>
        <stop offset="1" stop-color="#f5c211"/>
    </linearGradient>
    <path d="m 12 28 c -2.210938 0 -4 1.792969 -4 4 v 48 c 0 2.210938 1.789062 4 4 4 h 16 c 2.210938 0 4 1.792969 4 4 v 8 c 0 2.210938 1.789062 4 4 4 h 30 c 2.210938 0 4 -1.789062 4 -4 v -64 c 0 -2.207031 -1.789062 -4 -4 -4 z m 2 4 h 4 c 1.105469 0 2 0.894531 2 2 v 8 c 0 1.105469 -0.894531 2 -2 2 h -4 c -1.105469 0 -2 -0.894531 -2 -2 v -8 c 0 -1.105469 0.894531 -2 2 -2 z m 12 0 h 4 c 1.105469 0 2 0.894531 2 2 v 8 c 0 1.105469 -0.894531 2 -2 2 h -4 c -1.105469 0 -2 -0.894531 -2 -2 v -8 c 0 -1.105469 0.894531 -2 2 -2 z m 12 0 h 4 c 1.105469 0 2 0.894531 2 2 v 8 c 0 1.105469 -0.894531 2 -2 2 h -4 c -1.105469 0 -2 -0.894531 -2 -2 v -8 c 0 -1.105469 0.894531 -2 2 -2 z m 12 0 h 4 c 1.105469 0 2 0.894531 2 2 v 8 c 0 1.105469 -0.894531 2 -2 2 h -4 c -1.105469 0 -2 -0.894531 -2 -2 v -8 c 0 -1.105469 0.894531 -2 2 -2 z m -12 52 h 4 c 1.105469 0 2 0.894531 2 2 v 8 c 0 1.105469 -0.894531 2 -2 2 h -4 c -1.105469 0 -2 -0.894531 -2 -2 v -8 c 0 -1.105469 0.894531 -2 2 -2 z m 12 0 h 4 c 1.105469 0 2 0.894531 2 2 v 8 c 0 1.105469 -0.894531 2 -2 2 h -4 c -1.105469 0 -2 -0.894531 -2 -2 v -8 c 0 -1.105469 0.894531 -2 2 -2 z m 0 0" fill="url(#a)"/>
    <g fill-rule="evenodd">
        <path d="m 72 18.5 v -10 c -0.222656 -1.273438 0.347656 -2.554688 1.441406 -3.246094 c 2.257813 -0.925781 6.960938 -1.597656 12.558594 -1.730468 c 1.332031 -0.03125 2.667969 -0.03125 4 0 c 5.597656 0.132812 10.300781 0.804687 12.558594 1.730468 c 1.09375 0.691406 1.664062 1.972656 1.441406 3.246094 v 10 c 0 1.105469 -0.894531 2 -2 2 h -28 c -1.105469 0 -2 -0.894531 -2 -2 z m 0 0" fill="url(#b)"/>
        <path d="m 56 111 v -93 c -0.210938 -1.269531 0.375 -2.539062 1.476562 -3.203125 c 3.898438 -1.546875 15.089844 -2.683594 28.523438 -2.789063 c 1.332031 -0.011718 2.667969 -0.011718 4 0 c 13.433594 0.105469 24.625 1.242188 28.523438 2.789063 c 1.101562 0.664063 1.6875 1.933594 1.476562 3.203125 v 93 c 0 1.105469 -0.894531 2 -2 2 h -60 c -1.105469 0 -2 -0.894531 -2 -2 z m 0 0" fill="url(#c)"/>
        <path d="m 56 100.5 v -72.5 c 0 -2.207031 14.328125 -4 32 -4 s 32 1.792969 32 4 v 72.5 c 0 -2.207031 -14.328125 -4 -32 -4 s -32 1.792969 -32 4 z m 0 0" fill="url(#d)"/>
    </g>
    <path d="m 65.59375 50 s 9.40625 -2 21.40625 -2 c 8 0 15 1 15 1 v 36.550781" fill="none" stroke="#f5c211" stroke-linecap="round" stroke-linejoin="round" stroke-width="4"/>
    <path d="m 120 112 c 0 -2.207031 -14.328125 -4 -32 -4 s -32 1.792969 -32 4 c 0 2.210938 14.328125 4 32 4 s 32 -1.789062 32 -4 z m 0 0" fill="#3d3846" fill-rule="evenodd"/>
    <path d="m 110.40625 76.066406 s -8.40625 -1.066406 -22.40625 -1.066406 c -7 0 -14 1 -14 1 l 0.0625 -35.550781" fill="none" stroke="#f5c211" stroke-linecap="round" stroke-linejoin="round" stroke-width="4"/>
    <path d="m 65.59375 48 s 9.40625 -2 21.40625 -2 c 8 0 15 1 15 1 v 36.550781" fill="none" stroke="#63452c" stroke-linecap="round" stroke-linejoin="round" stroke-width="4"/>
    <path d="m 110.40625 74.066406 s -8.40625 -1.066406 -22.40625 -1.066406 c -7 0 -14 1 -14 1 l 0.0625 -35.550781" fill="none" stroke="#63452c" stroke-linecap="round" stroke-linejoin="round" stroke-width="4"/>
</svg>
