<?xml version="1.0" encoding="UTF-8" standalone="no"?>
<svg
   xmlns:dc="http://purl.org/dc/elements/1.1/"
   xmlns:cc="http://creativecommons.org/ns#"
   xmlns:rdf="http://www.w3.org/1999/02/22-rdf-syntax-ns#"
   xmlns:svg="http://www.w3.org/2000/svg"
   xmlns="http://www.w3.org/2000/svg"
   xmlns:sodipodi="http://sodipodi.sourceforge.net/DTD/sodipodi-0.dtd"
   xmlns:inkscape="http://www.inkscape.org/namespaces/inkscape"
   height="16px"
   viewBox="0 0 16 16"
   width="16px"
   version="1.1"
   id="svg12"
   sodipodi:docname="resize_icon.svg"
   inkscape:version="1.0.2 (e86c870879, 2021-01-15)">
  <metadata
     id="metadata18">
    <rdf:RDF>
      <cc:Work
         rdf:about="">
        <dc:format>image/svg+xml</dc:format>
        <dc:type
           rdf:resource="http://purl.org/dc/dcmitype/StillImage" />
      </cc:Work>
    </rdf:RDF>
  </metadata>
  <defs
     id="defs16" />
  <sodipodi:namedview
     pagecolor="#ffffff"
     bordercolor="#666666"
     borderopacity="1"
     objecttolerance="10"
     gridtolerance="10"
     guidetolerance="10"
     inkscape:pageopacity="0"
     inkscape:pageshadow="2"
     inkscape:window-width="2560"
     inkscape:window-height="1376"
     id="namedview14"
     showgrid="false"
     inkscape:zoom="63"
     inkscape:cx="8"
     inkscape:cy="8"
     inkscape:window-x="0"
     inkscape:window-y="0"
     inkscape:window-maximized="1"
     inkscape:current-layer="svg12" />
  <path
     d="m 2 8 c 0.550781 0 1 0.449219 1 1 v 5 c 0 0.550781 -0.449219 1 -1 1 s -1 -0.449219 -1 -1 v -5 c 0 -0.550781 0.449219 -1 1 -1 z m 0 0"
     id="path2"
     style="fill:#bebebe;fill-opacity:1" />
  <path
     d="m 2 13 h 5 c 0.550781 0 1 0.449219 1 1 s -0.449219 1 -1 1 h -5 c -0.550781 0 -1 -0.449219 -1 -1 s 0.449219 -1 1 -1 z m 0 0"
     id="path4"
     style="fill:#bebebe;fill-opacity:1" />
  <path
     d="m 9 1 h 5 c 0.550781 0 1 0.449219 1 1 s -0.449219 1 -1 1 h -5 c -0.550781 0 -1 -0.449219 -1 -1 s 0.449219 -1 1 -1 z m 0 0"
     id="path6"
     style="fill:#bebebe;fill-opacity:1" />
  <path
     d="m 14 1 c 0.550781 0 1 0.449219 1 1 v 5 c 0 0.550781 -0.449219 1 -1 1 s -1 -0.449219 -1 -1 v -5 c 0 -0.550781 0.449219 -1 1 -1 z m 0 0"
     id="path8"
     style="fill:#bebebe;fill-opacity:1" />
  <path
     d="m 1 14 l 13 -13 l 1 1 l -13 13 z"
     id="path10"
     style="fill:#bebebe;fill-opacity:1" />
</svg>
