<?xml version="1.0" encoding="UTF-8"?>
<svg height="128px" viewBox="0 0 128 128" width="128px" xmlns="http://www.w3.org/2000/svg">
    <path d="m 82.621094 12 h 14.757812 c 1.449219 0 2.621094 1.171875 2.621094 2.621094 v 6.757812 c 0 1.449219 -1.171875 2.621094 -2.621094 2.621094 h -14.757812 c -1.449219 0 -2.621094 -1.171875 -2.621094 -2.621094 v -6.757812 c 0 -1.449219 1.171875 -2.621094 2.621094 -2.621094 z m 0 0"/>
    <path d="m 16 30 c -2.214844 0 -4 1.785156 -4 4 v 68 c 0 2.214844 1.785156 4 4 4 h 48 c 2.214844 0 4 -1.785156 4 -4 v -68 c 0 -2.214844 -1.785156 -4 -4 -4 z m 0 4 h 6 v 8 h -6 z m 10 0 h 6 v 8 h -6 z m 10 0 h 6 v 8 h -6 z m 10 0 h 6 v 8 h -6 z m 10 0 h 6 v 8 h -6 z m -40 60 h 6 v 8 h -6 z m 10 0 h 6 v 8 h -6 z m 10 0 h 6 v 8 h -6 z m 10 0 h 6 v 8 h -6 z m 10 0 h 6 v 8 h -6 z m 0 0" fill="#63452c"/>
    <path d="m 68.363281 20 h 43.273438 c 2.410156 0 4.363281 1.953125 4.363281 4.363281 v 87.273438 c 0 2.410156 -1.953125 4.363281 -4.363281 4.363281 h -43.273438 c -2.410156 0 -4.363281 -1.953125 -4.363281 -4.363281 v -87.273438 c 0 -2.410156 1.953125 -4.363281 4.363281 -4.363281 z m 0 0"/>
    <path d="m 64 28 h 52 v 80 h -52 z m 0 0" fill="#f5c211"/>
    <path d="m 16 48 h 44 v 40 h -44 z m 0 0" fill="#99c1f1"/>
    <path d="m 16 74 l 8 -8 l 22 22 h -30 z" fill="#2ec27e"/>
    <path d="m 48 60 l 12 12 v 16 h -36 z m 0 0" fill="#26a269"/>
    <path d="m 37 58.5 c 0 2.484375 -2.015625 4.5 -4.5 4.5 s -4.5 -2.015625 -4.5 -4.5 s 2.015625 -4.5 4.5 -4.5 s 4.5 2.015625 4.5 4.5 z m 0 0" fill="#f9f06b"/>
    <path d="m 76 54 h 28 v 28 h -28 z m 0 0"/>
    <path d="m 80 58 h 20 v 20 h -20 z m 0 0" fill="#f5c211"/>
    <path d="m 78 48 c 1.105469 0 2 0.894531 2 2 v 6 c 0 1.105469 -0.894531 2 -2 2 s -2 -0.894531 -2 -2 v -6 c 0 -1.105469 0.894531 -2 2 -2 z m 0 0"/>
    <path d="m 72 54 h 6 c 1.105469 0 2 0.894531 2 2 s -0.894531 2 -2 2 h -6 c -1.105469 0 -2 -0.894531 -2 -2 s 0.894531 -2 2 -2 z m 0 0"/>
    <path d="m 102 78 h 6 c 1.105469 0 2 0.894531 2 2 s -0.894531 2 -2 2 h -6 c -1.105469 0 -2 -0.894531 -2 -2 s 0.894531 -2 2 -2 z m 0 0"/>
    <path d="m 102 78 c 1.105469 0 2 0.894531 2 2 v 6 c 0 1.105469 -0.894531 2 -2 2 s -2 -0.894531 -2 -2 v -6 c 0 -1.105469 0.894531 -2 2 -2 z m 0 0"/>
</svg>
